<svg width="236" height="41" viewBox="0 0 236 41" fill="none" xmlns="http://www.w3.org/2000/svg">
<path d="M31.0104 24.4403C31.0104 24.4403 27.9619 23.8096 27.9619 20.4458C27.9619 15.8731 24.3353 12.1413 19.8151 12.1413C15.3475 12.1413 11.7209 15.8731 11.7209 20.4458C11.7209 25.071 15.3475 28.8028 19.8151 28.8028C22.1803 28.8028 24.2827 27.8042 25.7544 26.1748C27.3838 27.9093 29.4862 28.8028 31.0104 28.8028C35.005 28.8028 39.1046 25.3864 39.1046 19.6574C39.1046 8.46209 30.8527 0.0524902 19.8151 0.0524902C8.88265 0.0524902 0 9.19793 0 20.4458C0 31.7462 8.88265 40.8916 19.8151 40.8916C24.125 40.8916 28.2247 39.525 31.6411 36.8445C32.5872 36.1612 32.7974 34.7946 32.0616 33.796C31.3258 32.8499 29.9592 32.6922 29.0131 33.4281C26.3325 35.4779 23.179 36.5291 19.8151 36.5291C11.3004 36.5291 4.36249 29.3284 4.36249 20.4458C4.36249 11.6157 11.3004 4.36241 19.8151 4.36241C28.4875 4.36241 34.7947 10.8273 34.7947 19.6574C34.7947 22.6533 32.85 24.4403 31.0104 24.4403ZM16.0308 20.4458C16.0308 18.2382 17.7653 16.4512 19.8151 16.4512C21.9175 16.4512 23.5994 18.2382 23.5994 20.4458C23.5994 22.6533 21.9175 24.4403 19.8151 24.4403C17.7653 24.4403 16.0308 22.6533 16.0308 20.4458Z" fill="white"/>
<path d="M69.6806 0.525635H69.628C68.4191 0.525635 67.4731 1.47171 67.4731 2.68059V25.0186C67.4731 29.6964 63.8464 33.4808 59.3263 33.4808C55.4368 33.4808 52.1781 30.59 51.3897 26.7531C51.1795 25.7544 50.2859 25.0186 49.2347 25.0186C47.9207 25.0186 46.8695 26.28 47.1323 27.594C48.2887 33.4282 53.3344 37.8432 59.3263 37.8432C66.2116 37.8432 71.8356 32.1142 71.8356 25.0186V2.68059C71.8356 1.47171 70.8369 0.525635 69.6806 0.525635Z" fill="white"/>
<path d="M100.052 0C89.9082 0 81.6562 8.46216 81.6562 18.9216C81.6562 29.381 89.9082 37.8432 100.052 37.8432C110.196 37.8432 118.448 29.381 118.448 18.9216C118.448 8.46216 110.196 0 100.052 0ZM86.0187 18.9216C86.0187 10.8799 92.3259 4.36248 100.052 4.36248C107.779 4.36248 114.086 10.8799 114.086 18.9216C114.086 26.9633 107.779 33.4807 100.052 33.4807C92.3259 33.4807 86.0187 26.9633 86.0187 18.9216Z" fill="white"/>
<path d="M161.464 18.2383C160.307 18.2383 159.361 19.0793 159.309 20.2356C159.204 21.0766 159.099 22.0226 158.993 22.5482C157.417 28.8554 151.898 33.5333 145.38 33.5333C137.654 33.5333 131.347 26.9633 131.347 18.9216C131.347 10.8799 137.654 4.36248 145.38 4.36248C150.531 4.36248 154.999 7.20072 157.469 11.5106C157.837 12.1939 158.573 12.6144 159.361 12.6144C161.043 12.6144 162.094 10.8274 161.253 9.35568C158.047 3.73176 152.161 0 145.38 0C135.236 0 126.984 8.46216 126.984 18.9216C126.984 29.381 135.236 37.8432 145.38 37.8432C154.316 37.8432 161.779 31.2732 163.408 22.5482C163.514 22.0752 163.619 21.3394 163.671 20.551C163.724 19.2895 162.725 18.2383 161.464 18.2383ZM143.961 20.3933C143.961 21.6022 144.96 22.5482 146.169 22.5482H153.369C154.578 22.5482 155.524 21.6022 155.524 20.3933C155.524 19.1844 154.578 18.2383 153.369 18.2383H146.169C144.96 18.2383 143.961 19.1844 143.961 20.3933Z" fill="white"/>
<path d="M193.347 0.525635H193.294C192.085 0.525635 191.139 1.47171 191.139 2.68059V25.0186C191.139 29.6964 187.512 33.4808 182.992 33.4808C179.103 33.4808 175.844 30.59 175.056 26.7531C174.845 25.7544 173.952 25.0186 172.901 25.0186C171.587 25.0186 170.536 26.28 170.798 27.594C171.955 33.4282 177 37.8432 182.992 37.8432C189.878 37.8432 195.502 32.1142 195.502 25.0186V2.68059C195.502 1.47171 194.503 0.525635 193.347 0.525635Z" fill="white"/>
<path d="M234.991 34.2166L221.799 1.94475C221.431 1.10379 220.59 0.525635 219.696 0.525635H218.592C217.646 0.525635 216.858 1.10379 216.49 1.94475L203.245 34.2166C202.667 35.5832 203.613 37.16 205.137 37.3176H221.115C222.324 37.3176 223.27 36.319 223.27 35.1627C223.27 33.9538 222.324 32.9552 221.115 32.9552H208.659L218.487 8.9878L219.118 7.411L219.749 8.9878L230.839 35.8985C231.154 36.7395 231.995 37.3176 232.941 37.3176C234.518 37.3176 235.622 35.6883 234.991 34.2166Z" fill="white"/>
</svg>
